<?xml version="1.0" encoding="UTF-8"?>
<!DOCTYPE svg PUBLIC "-//W3C//DTD SVG 1.1//EN" "http://www.w3.org/Graphics/SVG/1.1/DTD/svg11.dtd">
<!-- Creator: CorelDRAW 2019 (64-Bit) -->
<svg xmlns="http://www.w3.org/2000/svg" xml:space="preserve" width="297mm" height="210mm" version="1.1" style="shape-rendering:geometricPrecision; text-rendering:geometricPrecision; image-rendering:optimizeQuality; fill-rule:evenodd; clip-rule:evenodd"
viewBox="0 0 29700 21000"
 xmlns:xlink="http://www.w3.org/1999/xlink">
 <defs>
  <style type="text/css">
   <![CDATA[
    .str0 {stroke:#DC4749;stroke-width:7.62;stroke-miterlimit:22.9256}
    .fil0 {fill:#323145}
    .fil1 {fill:#DC4749}
   ]]>
  </style>
 </defs>
 <g id="Layer_x0020_1">
  <metadata id="CorelCorpID_0Corel-Layer"/>
  <path class="fil0" d="M16577.75 14032.45c-86.94,-218.86 -123.06,-290.84 -395.46,-293.57 -254.68,-2.56 -401.65,45.85 -379.1,323.66 59.8,174.03 373.46,179.49 659.04,241.37 -63.06,80.03 -156.11,159.17 -195.6,308.65 -70.65,267.49 19.54,867.64 -51.38,1041.81 -65.37,160.57 8.64,-88.69 -42.12,88.98l-13.31 437.58 223.92 -0.36c4.98,230.09 -1.42,459.93 -0.47,689.08 1.3,315.07 105.43,345.05 407.24,344.04 230.29,-0.77 511.77,47.6 580.04,-139.66 41.8,-114.64 19.94,-568.57 19.43,-719.36l2910.81 -16.34c-0.02,997.58 -108.66,872.51 515.69,873.63 709.21,1.27 438.55,19.86 483.33,-1025.95l228.87 -5.89c-15.18,-160.34 19.51,-373.34 -39.1,-502.87 -74.1,-163.71 -42.19,-207.97 -41.98,-486.41 0.15,-176.28 13.87,-372.23 -23.98,-543.74 -46.48,-210.63 -131.19,-195.87 -202.12,-340.6 380.42,-118.46 845.15,-13.44 591.96,-533.77 -779.06,-99.58 -510.01,75.75 -736.38,267.2 -31.88,-171.1 -163.02,-485.31 -221.65,-651.84 -307.13,-872.6 -358.51,-687.68 -2021.09,-687.74 -357.12,-0.01 -1458.21,-69.35 -1693.45,93.77 -175.37,121.6 -230,361.66 -308.6,583.13l-207.96 583.25c-41.04,86.98 68.98,-112.43 -21.21,38.19l-25.37 33.76zm3472.41 1287.99c199.65,61.67 521.19,35.65 768.27,34.59 329.28,-1.42 293.7,-188.78 282.79,-483.86 -146.06,-55.63 -593.62,-30.29 -774.69,-26.3 -325.43,7.18 -320.75,200.04 -276.37,475.57zm-1896.7 699.62l1374.74 4.21 12.07 -406.23 -1386.91 0.97 0.1 401.05zm-1340.38 -1763.4l4043.97 3.41 -450.54 -1273.86 -3113.06 0.66 -480.37 1269.79zm-220.29 1036.36c156.74,76.54 985,135.4 1062.78,-41.19 10.81,-150.5 -0.46,-216.74 -35.31,-345.93 -205.38,-92.32 -765.59,-81.96 -1038.9,-49.14l11.43 436.26z"/>
  <path class="fil1" d="M14633.49 17194.99l1.67 -3864.47c44.07,-4.73 104.57,-9.27 151.55,-16.76 150.48,-24.03 164.06,29.03 79.67,-37.65 -197.5,-54.86 -445.84,-17.63 -658.81,-54.69 -862.45,-150.08 -1541.91,-680.06 -1921.47,-1451.45 -429.05,-872 -331.66,-1871.69 220.33,-2664.51 112.3,-161.29 367.2,-442.57 498.75,-535.42 530.44,-374.41 1041.61,-628.28 1749.08,-577.05l-98.81 -19.59c-54.32,-206 -22.63,-441.16 -24.21,-650.12l-4.41 -538.24c-14.73,-142.32 15.18,-22.95 -12.69,-41.3 203.9,-22.79 307.7,6.66 509.11,-46.9 -929.78,-190.99 -2023.44,184.09 -2770.87,699.5 -406.02,279.97 -863.62,790.21 -1112.47,1238.78 -516.18,930.47 -624.69,1871.7 -449.22,2945.91 278.78,1706.6 1052.14,2918.81 2079.6,4053.21 347.15,383.31 296.45,374.29 746.09,750.49 69.1,57.8 87.27,97.15 151.56,152.31l320.52 259.75c160.17,131.61 342.33,308.9 545.03,398.2z"/>
  <path class="fil1 str0" d="M14754.26 7992.99c620.49,54.86 1159.71,258.14 1609.1,643.68 71.53,61.37 73.73,95.13 145.65,157.5 391.38,339.38 735.82,1061.46 751.24,1791.9 21.56,1021.13 -561.63,1921.07 -1433.74,2387.81 -131.45,70.34 -307.83,141.31 -457.81,184.49 -153.28,44.12 -384.49,47.85 -502.32,117.74 84.39,66.68 70.81,13.62 -79.67,37.65 -46.98,7.49 -107.48,12.03 -151.55,16.76l-1.67 3864.47c101.9,7.71 612.93,-435.62 756.72,-568.2 62.71,-57.83 97.13,-67.12 155.9,-119.87 105.64,-94.79 103.73,-149.4 309.11,-271.14 7.3,-141.65 -7.54,-294.53 3.65,-433.44 13.67,-169.78 67.07,-166.72 69.8,-365.59 3.52,-258.04 -37.31,-640.47 36.26,-872.46 -54.91,-67.59 -644.51,-195.12 -440.97,-765.25 184.65,-517.24 764.78,-330.34 901.32,-360.41 87.49,-19.27 58.42,0.97 145.01,-240.81 392.78,-1096.65 785.86,-707.24 1741.75,-813.17 359.7,-1555.84 420.93,-2968.05 -561.86,-4189.31 -43.81,-54.44 -83.28,-99.53 -122.42,-152.61 -71.42,-96.85 -60.63,-72.69 -151.85,-153.19 -226.68,-200.07 -186.4,-246.18 -636.63,-554.97 -390.69,-267.95 -1104.97,-620.96 -1716.03,-637.73 -201.41,53.56 -305.21,24.11 -509.11,46.9 27.87,18.35 -2.04,-101.02 12.69,41.3l4.41 538.24c1.58,208.96 -30.11,444.12 24.21,650.12l98.81 19.59z"/>
  <path class="fil1" d="M13580.95 12393.02l757.14 -2.78 0.65 -1210.42c573.01,-101.92 867.83,141.99 1388.13,-253.56 292.79,-222.58 547.38,-668.5 392.77,-1221.97 -308.78,-1105.35 -1589.79,-795.26 -2524.82,-817.92l-13.87 3506.65zm757.48 -1878.34c140.47,30.54 683.55,28.23 824.53,-6.38 198.32,-48.68 359.37,-251.55 363.75,-472.84 5.01,-253.55 -153.4,-427.63 -347.77,-485.37 -117.67,-34.96 -707.54,-33.96 -836.96,-12.26l-3.55 976.85z"/>
 </g>
</svg>
